{
  "accessors": [
    {
      "bufferView": 2,
      "componentType": 5126,
      "count": 262,
      "max": [
        45.529605865478516,
        45.52960968017578,
        352.8243713378906
      ],
      "min": [
        -45.529605865478516,
        -45.529605865478516,
        0.0
      ],
      "type": "VEC3"
    },
    {
      "bufferView": 2,
      "byteOffset": 3144,
      "componentType": 5126,
      "count": 262,
      "max": [
        0.9895520806312561,
        0.9895520806312561,
        0.9946709275245667
      ],
      "min": [
        -0.9895520806312561,
        -0.9895520806312561,
        -1.0
      ],
      "type": "VEC3"
    },
    {
      "bufferView": 1,
      "componentType": 5126,
      "count": 262,
      "max": [
        0.9559508562088013,
        1.0
      ],
      "min": [
        -0.13228410482406616,
        0.0
      ],
      "type": "VEC2"
    },
    {
      "bufferView": 0,
      "componentType": 5125,
      "count": 1188,
      "type": "SCALAR"
    },
    {
      "bufferView": 2,
      "byteOffset": 6288,
      "componentType": 5126,
      "count": 80,
      "max": [
        45.6060676574707,
        45.60607147216797,
        290.5178527832031
      ],
      "min": [
        -45.6060676574707,
        -45.6060676574707,
        150.7017059326172
      ],
      "type": "VEC3"
    },
    {
      "bufferView": 2,
      "byteOffset": 7248,
      "componentType": 5126,
      "count": 80,
      "max": [
        0.9997141361236572,
        0.9997140765190125,
        0.15237447619438171
      ],
      "min": [
        -0.9997140765190125,
        -0.9997140765190125,
        -0.023913895711302757
      ],
      "type": "VEC3"
    },
    {
      "bufferView": 1,
      "byteOffset": 2096,
      "componentType": 5126,
      "count": 80,
      "max": [
        0.9559508562088013,
        1.0
      ],
      "min": [
        0.04404915124177933,
        1.0
      ],
      "type": "VEC2"
    },
    {
      "bufferView": 0,
      "byteOffset": 4752,
      "componentType": 5125,
      "count": 360,
      "type": "SCALAR"
    },
    {
      "bufferView": 2,
      "byteOffset": 8208,
      "componentType": 5126,
      "count": 3238,
      "max": [
        27.06102752685547,
        9.047748565673828,
        21.86594009399414
      ],
      "min": [
        -31.033830642700195,
        -149.9911346435547,
        -24.357868194580078
      ],
      "type": "VEC3"
    },
    {
      "bufferView": 2,
      "byteOffset": 47064,
      "componentType": 5126,
      "count": 3238,
      "max": [
        1.0,
        1.0,
        1.0
      ],
      "min": [
        -1.0,
        -1.0,
        -1.0
      ],
      "type": "VEC3"
    },
    {
      "bufferView": 1,
      "byteOffset": 2736,
      "componentType": 5126,
      "count": 3238,
      "max": [
        0.7263754606246948,
        0.9466204643249512
      ],
      "min": [
        0.2441248595714569,
        0.04662052541971207
      ],
      "type": "VEC2"
    },
    {
      "bufferView": 0,
      "byteOffset": 6192,
      "componentType": 5125,
      "count": 19392,
      "type": "SCALAR"
    }
  ],
  "asset": {
    "extras": {
      "author": "Etherlyte (https://sketchfab.com/etherlyte)",
      "license": "CC-BY-4.0 (http://creativecommons.org/licenses/by/4.0/)",
      "source": "https://sketchfab.com/3d-models/lava-lamp-9a229700b95f44089033c6c9cec0eacc",
      "title": "Lava Lamp"
    },
    "generator": "Sketchfab-12.67.0",
    "version": "2.0"
  },
  "bufferViews": [
    {
      "buffer": 0,
      "byteLength": 83760,
      "name": "floatBufferViews",
      "target": 34963
    },
    {
      "buffer": 0,
      "byteLength": 28640,
      "byteOffset": 83760,
      "byteStride": 8,
      "name": "floatBufferViews",
      "target": 34962
    },
    {
      "buffer": 0,
      "byteLength": 85920,
      "byteOffset": 112400,
      "byteStride": 12,
      "name": "floatBufferViews",
      "target": 34962
    }
  ],
  "buffers": [
    {
      "byteLength": 198320,
      "uri": "scene.bin"
    }
  ],
  "extensionsUsed": [
    "KHR_materials_transmission"
  ],
  "images": [
    {
      "uri": "textures/Material_25_baseColor.png"
    }
  ],
  "materials": [
    {
      "doubleSided": true,
      "name": "Material_89",
      "pbrMetallicRoughness": {
        "baseColorFactor": [
          0.4219779078,
          0.4219779078,
          0.4219779078,
          1.0
        ],
        "metallicFactor": 0.5931783537,
        "roughnessFactor": 0.22999237800000005
      }
    },
    {
      "alphaMode": "BLEND",
      "doubleSided": true,
      "extensions": {
        "KHR_materials_transmission": {
          "transmissionFactor": 0.23608993899999997
        }
      },
      "name": "Material_160",
      "pbrMetallicRoughness": {
        "baseColorFactor": [
          1.0,
          0.0,
          0.5666273946,
          0.763910061
        ],
        "metallicFactor": 0.245617378,
        "roughnessFactor": 0.18121189019999995
      }
    },
    {
      "doubleSided": true,
      "emissiveFactor": [
        1.0,
        1.0,
        1.0
      ],
      "emissiveTexture": {
        "index": 0
      },
      "name": "Material_25",
      "pbrMetallicRoughness": {
        "baseColorTexture": {
          "index": 0
        },
        "metallicFactor": 0.0,
        "roughnessFactor": 0.8929713596
      }
    }
  ],
  "meshes": [
    {
      "name": "Cylinder006_Material #89_0",
      "primitives": [
        {
          "attributes": {
            "NORMAL": 1,
            "POSITION": 0,
            "TEXCOORD_0": 2
          },
          "indices": 3,
          "material": 0,
          "mode": 4
        }
      ]
    },
    {
      "name": "Object005_Material #160_0",
      "primitives": [
        {
          "attributes": {
            "NORMAL": 5,
            "POSITION": 4,
            "TEXCOORD_0": 6
          },
          "indices": 7,
          "material": 1,
          "mode": 4
        }
      ]
    },
    {
      "name": "Sphere001_Material #25_0",
      "primitives": [
        {
          "attributes": {
            "NORMAL": 9,
            "POSITION": 8,
            "TEXCOORD_0": 10
          },
          "indices": 11,
          "material": 2,
          "mode": 4
        }
      ]
    }
  ],
  "nodes": [
    {
      "children": [
        1
      ],
      "matrix": [
        0.002737211063504219,
        0.0,
        0.0,
        0.0,
        0.0,
        6.077829491922191e-19,
        -0.002737211063504219,
        0.0,
        0.0,
        0.002737211063504219,
        6.077829491922191e-19,
        0.0,
        0.0,
        0.0,
        0.0,
        1.0
      ],
      "name": "Sketchfab_model"
    },
    {
      "children": [
        2
      ],
      "matrix": [
        1.0,
        0.0,
        0.0,
        0.0,
        0.0,
        0.0,
        1.0,
        0.0,
        0.0,
        -1.0,
        0.0,
        0.0,
        0.0,
        0.0,
        0.0,
        1.0
      ],
      "name": "c65acf865d704cd9b56e154d746384d2.fbx"
    },
    {
      "children": [
        3,
        6,
        9
      ],
      "name": "RootNode"
    },
    {
      "children": [
        4
      ],
      "matrix": [
        0.3890010118484497,
        0.0,
        0.0,
        0.0,
        0.0,
        4.637253408423758e-08,
        -0.389001011848447,
        0.0,
        0.0,
        0.389001011848447,
        4.637253408423758e-08,
        0.0,
        8.953125,
        -2.674541473388672,
        -21.17889404296875,
        1.0
      ],
      "name": "Cylinder006"
    },
    {
      "children": [
        5
      ],
      "matrix": [
        1.0,
        0.0,
        -0.0,
        0.0,
        0.0,
        1.0,
        0.0,
        0.0,
        0.0,
        0.0,
        1.0,
        0.0,
        0.0,
        -6.733225745847449e-07,
        -5.6482391357421875,
        1.0
      ],
      "name": "Object_4"
    },
    {
      "mesh": 0,
      "name": "Cylinder006_Material #89_0"
    },
    {
      "children": [
        7
      ],
      "matrix": [
        0.3890010118484497,
        0.0,
        0.0,
        0.0,
        0.0,
        4.637253408423758e-08,
        -0.389001011848447,
        0.0,
        0.0,
        0.389001011848447,
        4.637253408423758e-08,
        0.0,
        8.953125,
        -2.674541473388672,
        -21.17889404296875,
        1.0
      ],
      "name": "Object005"
    },
    {
      "children": [
        8
      ],
      "matrix": [
        1.0,
        0.0,
        -0.0,
        0.0,
        0.0,
        1.0,
        0.0,
        0.0,
        0.0,
        0.0,
        1.0,
        0.0,
        0.0,
        -6.733225745847449e-07,
        -5.6482391357421875,
        1.0
      ],
      "name": "Object_7"
    },
    {
      "mesh": 1,
      "name": "Object005_Material #160_0"
    },
    {
      "children": [
        10
      ],
      "matrix": [
        0.3890010118484497,
        0.0,
        0.0,
        0.0,
        0.0,
        0.38900101184844454,
        6.337631224397975e-08,
        0.0,
        0.0,
        -6.337631224397975e-08,
        0.38900101184844454,
        0.0,
        11.123779296875,
        -2.674541473388672,
        -21.17889404296875,
        1.0
      ],
      "name": "Sphere001"
    },
    {
      "children": [
        11
      ],
      "matrix": [
        1.0,
        0.0,
        -0.0,
        0.0,
        0.0,
        1.0,
        0.0,
        0.0,
        0.0,
        0.0,
        1.0,
        0.0,
        0.0,
        291.08465576171875,
        -4.742371311294846e-05,
        1.0
      ],
      "name": "Object_10"
    },
    {
      "mesh": 2,
      "name": "Sphere001_Material #25_0"
    }
  ],
  "samplers": [
    {
      "magFilter": 9729,
      "minFilter": 9987,
      "wrapS": 10497,
      "wrapT": 10497
    }
  ],
  "scene": 0,
  "scenes": [
    {
      "name": "Sketchfab_Scene",
      "nodes": [
        0
      ]
    }
  ],
  "textures": [
    {
      "sampler": 0,
      "source": 0
    }
  ]
}
