<?xml version="1.0" encoding="UTF-8"?>
<!DOCTYPE svg PUBLIC "-//W3C//DTD SVG 1.1//EN" "http://www.w3.org/Graphics/SVG/1.1/DTD/svg11.dtd">
<!-- Creator: CorelDRAW 2020 (64-Bit) -->
<svg xmlns="http://www.w3.org/2000/svg" xml:space="preserve" width="0.166783in" height="0.166764in" version="1.1" style="shape-rendering:geometricPrecision; text-rendering:geometricPrecision; image-rendering:optimizeQuality; fill-rule:evenodd; clip-rule:evenodd"
viewBox="0 0 1.98 1.98"
 xmlns:xlink="http://www.w3.org/1999/xlink"
 xmlns:xodm="http://www.corel.com/coreldraw/odm/2003">
 <defs>
  <style type="text/css">
   <![CDATA[
    .fil0 {fill:#33CC66}
    .fil1 {fill:black;fill-rule:nonzero}
   ]]>
  </style>
 </defs>
 <rect class="fil0" x="-132.39" y="-93.93" width="97.93" height="138.5"/>
 <g id="Layer_x0020_1">
  <metadata id="CorelCorpID_0Corel-Layer"/>
  <path class="fil1" d="M1.16 0.99l0.78 -0.78c0.02,-0.02 0.04,-0.05 0.04,-0.09 0,-0.03 -0.01,-0.06 -0.04,-0.09 -0.02,-0.02 -0.05,-0.04 -0.09,-0.04 -0.03,0 -0.06,0.01 -0.09,0.04l-0.78 0.78 -0.78 -0.78c-0.02,-0.02 -0.05,-0.04 -0.09,-0.04 -0.03,0 -0.06,0.01 -0.09,0.04 -0.02,0.02 -0.04,0.05 -0.04,0.09 0,0.03 0.01,0.06 0.04,0.09l0.78 0.78 -0.78 0.78c-0.01,0.01 -0.02,0.03 -0.03,0.04 -0.01,0.02 -0.01,0.03 -0.01,0.05 0,0.02 0,0.03 0.01,0.05 0.01,0.02 0.02,0.03 0.03,0.04 0.01,0.01 0.03,0.02 0.04,0.03 0.02,0.01 0.03,0.01 0.05,0.01 0.02,0 0.03,-0 0.05,-0.01 0.02,-0.01 0.03,-0.02 0.04,-0.03l0.78 -0.78 0.78 0.78c0.01,0.01 0.03,0.02 0.04,0.03 0.02,0.01 0.03,0.01 0.05,0.01 0.02,0 0.03,-0 0.05,-0.01 0.02,-0.01 0.03,-0.02 0.04,-0.03 0.01,-0.01 0.02,-0.03 0.03,-0.04 0.01,-0.02 0.01,-0.03 0.01,-0.05 0,-0.02 -0,-0.03 -0.01,-0.05 -0.01,-0.02 -0.02,-0.03 -0.03,-0.04l-0.78 -0.78z"/>
 </g>
</svg>
