<?xml version="1.0" encoding="UTF-8"?>
<!DOCTYPE svg PUBLIC "-//W3C//DTD SVG 1.1//EN" "http://www.w3.org/Graphics/SVG/1.1/DTD/svg11.dtd">
<!-- Creator: CorelDRAW 2020 (64-Bit) -->
<svg xmlns="http://www.w3.org/2000/svg" xml:space="preserve" width="1.92633in" height="1.24175in" version="1.1" style="shape-rendering:geometricPrecision; text-rendering:geometricPrecision; image-rendering:optimizeQuality; fill-rule:evenodd; clip-rule:evenodd"
viewBox="0 0 2150.74 1386.4"
 xmlns:xlink="http://www.w3.org/1999/xlink"
 xmlns:xodm="http://www.corel.com/coreldraw/odm/2003">
 <defs>
  <style type="text/css">
   <![CDATA[
    .fil1 {fill:black}
    .fil0 {fill:#FF9200}
   ]]>
  </style>
 </defs>
 <g id="Layer_x0020_1">
  <metadata id="CorelCorpID_0Corel-Layer"/>
  <rect class="fil0" x="6.13" y="18.09" width="2107.38" height="1195.58"/>
  <path class="fil1" d="M63.35 68.81l2024.05 -5.47 0 1000.86 -2024.05 5.47 0 -1000.86zm-63.35 1317.59l2150.74 -5.47 0 -1380.93 -2150.74 5.46 0 1380.94zm1342.94 -608.12l126.69 0 0 -126.69 63.35 0 0 63.35 63.35 0 0 63.34 190.04 0 0 -63.34 -63.34 0 0 -63.35 -63.35 0 0 -63.34 -63.35 0 0 -63.35 63.35 0 0 -63.35 63.35 0 0 -63.35 63.34 0 0 -50.68 -126.69 0 0 50.68 -63.35 0 0 63.35 -63.35 0 0 63.35 -63.35 0 0 -177.37 -126.69 0 0 430.75zm-937.52 -367.4l0 50.68 -63.35 0 0 190.04 63.35 0 0 63.35 63.34 0 0 63.34 304.06 0 0 -253.38 -177.37 0 0 63.35 50.68 0 0 126.69 -114.02 0 0 -63.35 -63.35 0 0 -190.04 50.68 0 0 -63.35 253.38 0 0 -50.68 -304.06 0 0 63.35 -63.34 0zm557.45 367.4l126.69 0 0 -126.69 -126.69 0 0 126.69z"/>
 </g>
</svg>
