<?xml version="1.0" encoding="UTF-8"?>
<!DOCTYPE svg PUBLIC "-//W3C//DTD SVG 1.1//EN" "http://www.w3.org/Graphics/SVG/1.1/DTD/svg11.dtd">
<!-- Creator: CorelDRAW 2020 (64-Bit) -->
<svg xmlns="http://www.w3.org/2000/svg" xml:space="preserve" width="4.22172in" height="1.03408in" version="1.1" style="shape-rendering:geometricPrecision; text-rendering:geometricPrecision; image-rendering:optimizeQuality; fill-rule:evenodd; clip-rule:evenodd"
viewBox="0 0 4961.75 1215.34"
 xmlns:xlink="http://www.w3.org/1999/xlink"
 xmlns:xodm="http://www.corel.com/coreldraw/odm/2003">
 <defs>
  <style type="text/css">
   <![CDATA[
    .fil0 {fill:black}
   ]]>
  </style>
 </defs>
 <g id="Layer_x0020_1">
  <metadata id="CorelCorpID_0Corel-Layer"/>
  <path class="fil0" d="M2620.25 1137.3l-11.15 0 0 22.3 -11.15 0 0 11.15 -22.3 0 0 -33.45 11.15 0 0 -22.3 11.15 0 0 -11.16 11.15 0 0 -11.15 11.15 0 0 -11.15 11.15 0 0 -22.3 11.15 0 0 -11.15 11.15 0 0 -11.15 11.15 0 0 -11.15 11.15 0 0 -11.15 22.3 0 0 156.1 -33.45 0 0 -44.6 -44.6 0 0 11.15zm1181.9 0l-11.15 0 0 11.15 -11.15 0 0 11.15 -11.15 0 0 11.15 -66.9 0 0 -11.15 -11.15 0 0 -22.3 -11.15 0 0 -66.9 11.15 0 0 -22.3 11.15 0 0 -11.15 11.16 0 0 -11.15 22.3 0 0 -11.15 44.6 0 0 11.15 22.3 0 0 22.3 11.15 0 0 55.75 -11.15 0 0 33.45zm-1549.85 -22.3l-11.15 0 0 33.44 11.15 0 0 -11.15 44.6 0 0 22.3 -11.15 0 0 11.15 -66.9 0 0 -11.15 -11.15 0 0 -22.3 11.15 0 0 -44.6 11.15 0 0 -66.9 11.15 0 0 -11.15 22.3 0 0 55.75 -11.15 0 0 44.6zm-981.2 55.75l-33.45 0 0 -44.6 -44.6 0 0 22.3 -11.15 0 0 11.15 -11.15 0 0 11.15 -22.3 0 0 -22.3 11.15 0 0 -33.44 11.15 0 0 -11.16 22.3 0 0 -22.3 11.15 0 0 -11.15 11.15 0 0 -11.15 11.16 0 0 -22.3 11.15 0 0 -11.15 44.6 0 0 44.6 -11.15 0 0 100.35zm2564.5 -133.8l22.3 0 0 -11.15 11.15 0 0 -11.15 11.15 0 0 11.15 55.75 0 0 11.15 11.15 0 0 66.9 -11.15 0 0 11.16 -33.45 0 0 11.15 -44.6 0 0 33.45 -11.15 0 0 11.15 -22.3 0 0 -44.6 11.15 0 0 -33.45 11.15 0 0 -33.45 -11.15 0 0 -22.3zm-769.35 0l22.3 0 0 -11.15 11.15 0 0 -11.15 22.3 0 0 11.15 44.6 0 0 11.15 11.15 0 0 11.15 11.15 0 0 55.75 -11.15 0 0 22.3 -11.15 0 0 22.3 -11.15 0 0 11.15 -22.3 0 0 11.15 -55.75 0 0 -11.15 -11.15 0 0 -55.75 11.15 0 0 -44.6 -11.15 0 0 -22.3zm-925.45 -11.15l0 -11.15 22.3 0 0 44.6 -11.16 0 0 44.6 -11.15 0 0 33.45 55.75 0 0 22.3 -44.6 0 0 11.15 -44.6 0 0 -78.05 11.15 0 0 -22.3 11.15 0 0 -44.6 11.15 0zm-144.95 78.05l-11.15 0 0 33.45 11.15 0 0 11.15 33.45 0 0 -11.15 11.15 0 0 -11.15 11.16 0 0 -55.75 11.15 0 0 -44.6 11.15 0 0 -11.15 22.3 0 0 66.9 -11.15 0 0 44.6 -11.15 0 0 11.15 -11.15 0 0 22.3 -22.3 0 0 11.15 -66.9 0 0 -11.15 -11.15 0 0 -22.3 -11.15 0 0 -33.45 11.15 0 0 -55.75 11.15 0 0 -22.3 33.45 0 0 33.45 -11.15 0 0 44.6zm-1103.85 -66.9l22.3 0 0 -11.15 22.3 0 0 -11.15 11.15 0 0 11.15 55.75 0 0 11.15 11.15 0 0 44.6 -11.15 0 0 11.15 -22.3 0 0 11.15 -11.15 0 0 11.16 11.15 0 0 22.3 11.15 0 0 11.15 22.3 0 0 22.3 -22.3 0 0 -11.15 -22.3 0 0 -11.15 -11.15 0 0 -22.3 -11.15 0 0 -11.15 -22.3 0 0 44.6 -11.15 0 0 11.15 -22.3 0 0 -55.75 11.15 0 0 -44.6 11.15 0 0 -11.15 -22.3 0 0 -22.3zm3110.85 -11.15l0 -11.15 89.2 0 0 22.3 22.3 0 0 -11.15 11.15 0 0 -11.15 11.15 0 0 11.15 55.75 0 0 11.15 11.16 0 0 55.75 -22.3 0 0 11.15 -11.15 0 0 22.3 11.15 0 0 11.15 11.15 0 0 11.15 11.16 0 0 22.3 -22.3 0 0 -11.15 -11.15 0 0 -11.15 -11.15 0 0 -11.15 -11.16 0 0 -11.15 -11.15 0 0 -11.15 -11.15 0 0 22.3 -11.15 0 0 22.3 -11.15 0 0 11.15 -22.3 0 0 -44.6 11.15 0 0 -33.45 11.15 0 0 -33.45 -22.3 0 0 -11.15 -55.75 0 0 22.3 -11.15 0 0 11.15 44.6 0 0 22.3 -55.75 0 0 33.45 55.75 0 0 22.3 -22.3 0 0 11.15 -66.9 0 0 -44.6 11.15 0 0 -66.9 11.15 0 0 -33.45 11.15 0zm-1081.55 33.45l22.3 0 0 -11.15 11.15 0 0 -11.15 11.15 0 0 -11.15 33.45 0 0 22.3 -22.3 0 0 11.15 -11.15 0 0 11.15 -11.15 0 0 11.15 -11.15 0 0 11.15 -11.15 0 0 22.3 11.15 0 0 11.15 11.15 0 0 11.15 11.15 0 0 11.15 11.15 0 0 22.3 -22.3 0 0 -11.15 -11.15 0 0 -11.15 -11.15 0 0 -11.15 -11.15 0 0 -11.15 -11.15 0 0 -11.15 -11.15 0 0 44.6 -11.15 0 0 11.15 -22.3 0 0 -66.9 11.15 0 0 -44.6 11.16 0 0 -33.45 33.44 0 0 33.45zm-133.8 0l-11.15 0 0 11.15 -11.15 0 0 22.3 -11.15 0 0 44.6 11.15 0 0 11.15 33.45 0 0 -11.15 11.15 0 0 -11.15 11.15 0 0 -11.15 22.3 0 0 22.3 -11.15 0 0 22.3 -22.3 0 0 11.15 -66.9 0 0 -11.15 -11.15 0 0 -11.15 -11.15 0 0 -66.9 11.15 0 0 -11.15 11.15 0 0 -22.3 11.15 0 0 -11.15 22.3 0 0 -11.15 66.9 0 0 11.15 11.15 0 0 33.45 -33.45 0 0 -22.3 -33.45 0 0 11.15zm-323.35 -33.45l111.5 0 0 22.3 -44.6 0 0 44.6 -11.15 0 0 33.45 -11.15 0 0 33.45 -11.15 0 0 11.15 -22.3 0 0 -44.6 11.15 0 0 -44.6 11.15 0 0 -33.45 -33.45 0 0 -22.3zm-100.35 55.75l22.3 0 0 11.15 22.3 0 0 11.15 11.15 0 0 11.16 11.15 0 0 33.44 -11.15 0 0 11.15 -11.15 0 0 11.15 -89.2 0 0 -11.15 -11.15 0 0 -22.3 11.15 0 0 -11.15 11.15 0 0 11.15 11.15 0 0 11.15 44.6 0 0 -11.15 11.15 0 0 -11.15 -11.15 0 0 -11.15 -22.3 0 0 -11.16 -22.3 0 0 -11.15 -11.15 0 0 -55.75 22.3 0 0 -11.15 78.05 0 0 11.15 11.15 0 0 33.45 -11.15 0 0 11.15 -22.3 0 0 -33.45 -44.6 0 0 33.45zm-735.9 -11.15l-11.15 0 0 22.3 -11.15 0 0 22.3 -11.15 0 0 22.3 -11.15 0 0 11.15 -11.15 0 0 22.3 -33.45 0 0 -11.15 -11.15 0 0 -133.8 22.3 0 0 111.5 11.16 0 0 -11.15 11.15 0 0 -22.3 11.15 0 0 -22.3 11.15 0 0 -22.3 11.15 0 0 -22.3 11.15 0 0 -11.15 22.3 0 0 22.3 -11.15 0 0 22.3zm-312.2 -44.6l111.5 0 0 22.3 -44.6 0 0 22.3 -11.15 0 0 55.75 -11.15 0 0 33.45 -11.15 0 0 11.15 -22.3 0 0 -33.45 11.16 0 0 -44.6 11.15 0 0 -44.6 -33.45 0 0 -22.3zm-501.75 33.45l-11.15 0 0 22.3 -11.15 0 0 11.15 -11.15 0 0 44.6 11.15 0 0 11.15 33.45 0 0 -11.15 11.15 0 0 -11.15 11.16 0 0 -11.15 22.3 0 0 33.44 -11.15 0 0 11.15 -22.3 0 0 11.15 -66.9 0 0 -11.15 -11.15 0 0 -89.2 11.15 0 0 -11.15 11.15 0 0 -11.15 11.15 0 0 -11.15 11.15 0 0 -11.15 78.05 0 0 44.6 -22.3 0 0 -11.15 -11.15 0 0 -11.15 -33.45 0 0 11.15zm2809.8 44.6l-11.15 0 0 33.45 55.75 0 0 22.3 -11.15 0 0 11.15 -78.05 0 0 -66.9 11.15 0 0 -44.6 11.16 0 0 -33.45 11.15 0 0 -11.15 22.3 0 0 22.3 -11.15 0 0 66.9zm-111.5 -22.3l44.6 0 0 11.15 -11.15 0 0 11.15 -44.6 0 0 11.16 -11.15 0 0 33.44 33.44 0 0 -11.15 22.3 0 0 22.3 -22.3 0 0 11.15 -66.9 0 0 -55.75 11.15 0 0 -44.6 11.15 0 0 -44.6 11.16 0 0 -11.15 89.2 0 0 22.3 -66.9 0 0 44.6zm-256.45 -11.15l-11.15 0 0 11.15 44.6 0 0 22.3 -44.6 0 0 11.16 -11.15 0 0 22.3 55.75 0 0 22.3 -22.3 0 0 11.15 -55.75 0 0 -11.15 -11.15 0 0 -55.75 11.15 0 0 -44.6 11.15 0 0 -33.45 11.15 0 0 -11.15 89.2 0 0 11.15 33.45 0 0 111.5 11.15 0 0 -22.3 11.16 0 0 -22.3 11.15 0 0 -22.3 11.15 0 0 -22.3 11.15 0 0 -22.3 33.45 0 0 22.3 -11.15 0 0 22.3 -11.15 0 0 22.3 -11.15 0 0 11.15 -11.15 0 0 22.3 -11.15 0 0 22.3 -11.15 0 0 11.15 -11.16 0 0 11.15 -33.44 0 0 -55.75 -11.15 0 0 -78.05 -66.9 0 0 33.45zm-1371.45 11.15l-11.15 0 0 11.15 66.9 0 0 11.15 -11.15 0 0 11.16 -66.9 0 0 44.6 -11.15 0 0 11.15 -22.3 0 0 -22.3 11.15 0 0 -44.6 11.15 0 0 -66.9 11.15 0 0 -22.3 89.2 0 0 22.3 -66.9 0 0 44.6zm-167.25 -33.45l-11.15 0 0 33.45 44.6 0 0 11.15 -11.15 0 0 11.15 -44.6 0 0 33.45 55.75 0 0 22.3 -55.75 0 0 11.15 -33.45 0 0 -11.15 -11.15 0 0 -22.3 11.15 0 0 -55.75 11.16 0 0 -55.75 22.3 0 0 -11.15 78.05 0 0 22.3 -55.75 0 0 11.15zm-211.85 0l-11.15 0 0 33.45 -11.15 0 0 22.3 -11.15 0 0 44.6 22.3 0 0 11.15 -11.15 0 0 11.15 -66.9 0 0 -22.3 33.45 0 0 -44.6 11.15 0 0 -55.75 -22.3 0 0 -11.15 11.16 0 0 -11.15 66.9 0 0 11.15 -11.15 0 0 11.15zm-412.55 22.3l-11.15 0 0 11.15 44.6 0 0 22.3 -55.75 0 0 33.45 55.75 0 0 22.3 -22.3 0 0 11.15 -66.9 0 0 -66.9 11.15 0 0 -44.6 11.15 0 0 -33.45 11.15 0 0 -11.15 89.2 0 0 22.3 -66.9 0 0 33.45zm-1036.95 -1014.65l4850.25 0 0 880.85 -4850.25 0 0 -880.85zm-55.75 1159.59l4961.75 0 0 -1215.34 -4961.75 0 0 1215.34zm1181.9 -535.2l111.5 0 0 -111.5 55.75 0 0 55.75 55.75 0 0 55.75 167.25 0 0 -55.75 -55.75 0 0 -55.75 -55.75 0 0 -55.75 -55.75 0 0 -55.75 55.75 0 0 -55.75 55.75 0 0 -55.75 55.75 0 0 -44.6 -111.5 0 0 44.6 -55.75 0 0 55.75 -55.75 0 0 55.75 -55.75 0 0 -156.1 -111.5 0 0 379.1zm602.1 -278.75l0 -55.75 66.9 0 0 55.75 55.75 0 0 122.65 -178.4 0 0 -122.65 55.75 0zm-100.35 -44.6l0 44.6 -55.75 0 0 278.75 111.5 0 0 -111.5 156.1 0 0 111.5 111.5 0 0 -278.75 -55.75 0 0 -44.6 -55.75 0 0 -55.75 -156.1 0 0 55.75 -55.75 0zm1761.7 -11.15l-55.75 0 0 111.5 55.75 0 0 55.75 223 0 0 111.5 -167.25 0 0 -55.75 -111.5 0 0 55.75 55.75 0 0 55.75 278.75 0 0 -55.75 55.75 0 0 -111.5 -55.75 0 0 -55.75 -223 0 0 -111.5 167.25 0 0 55.75 111.5 0 0 -55.75 -55.75 0 0 -44.6 -278.75 0 0 44.6zm-3088.55 11.15l0 44.6 -55.75 0 0 167.25 55.75 0 0 55.75 55.75 0 0 55.75 267.6 0 0 -223 -156.1 0 0 55.75 44.6 0 0 111.5 -100.35 0 0 -55.75 -55.75 0 0 -167.25 44.6 0 0 -55.75 223 0 0 -44.6 -267.6 0 0 55.75 -55.75 0zm4303.9 -11.15l0 -44.6 -323.35 0 0 44.6 111.5 0 0 278.75 -111.5 0 0 55.75 323.35 0 0 -55.75 -111.5 0 0 -278.75 111.5 0zm-1326.85 0l0 -44.6 -323.35 0 0 44.6 111.5 0 0 278.75 -111.5 0 0 55.75 323.35 0 0 -55.75 -111.5 0 0 -278.75 111.5 0zm-769.35 334.5l334.5 0 0 -55.75 -223 0 0 -323.35 -111.5 0 0 379.1zm-446 0l334.5 0 0 -55.75 -223 0 0 -323.35 -111.5 0 0 379.1zm1772.85 -379.1l0 44.6 111.5 0 0 334.5 111.5 0 0 -334.5 100.35 0 0 -44.6 -323.35 0zm-3043.95 379.1l111.5 0 0 -111.5 -111.5 0 0 111.5zm2887.85 379.1l-11.15 0 0 22.3 -11.15 0 0 55.75 11.15 0 0 11.15 33.45 0 0 -22.3 11.15 0 0 -11.15 11.15 0 0 -66.9 -44.6 0 0 11.15zm-613.25 11.15l-11.15 0 0 33.44 -11.15 0 0 44.6 33.45 0 0 -11.15 11.15 0 0 -22.3 11.16 0 0 -66.9 -33.45 0 0 22.3zm758.2 22.3l-11.15 0 0 11.15 44.6 0 0 -11.15 11.15 0 0 -44.6 -44.6 0 0 44.6zm200.7 -33.45l11.15 0 0 -44.6 -89.2 0 0 11.15 78.05 0c0,27.72 0,5.73 0,33.45zm-3133.15 11.15l-11.15 0 0 22.3 33.45 0 0 -11.15 11.15 0 0 -11.15 11.15 0 0 -22.3 -44.6 0 0 22.3zm3188.9 11.15l44.6 0 0 -33.45 -44.6 0 0 33.45zm-1471.8 -11.15l-11.15 0 0 11.15 -11.15 0 0 22.3 22.3 0 0 -11.15 11.15 0 0 -33.45 -11.15 0 0 11.15zm1494.1 11.15l-22.3 0 0 -11.15 -11.15 0 0 22.3 33.45 0 0 -11.15zm-2921.3 0l-11.15 0 0 11.15 22.3 0 0 -33.45 -11.15 0 0 22.3zm2865.55 -44.6l-11.15 0 0 22.3 11.15 0 0 -22.3zm-1170.75 22.3l-22.3 0 0 22.3 11.15 0 0 -11.15 11.15 0 0 -11.15z"/>
 </g>
</svg>
