<?xml version="1.0" encoding="UTF-8"?>
<!DOCTYPE svg PUBLIC "-//W3C//DTD SVG 1.1//EN" "http://www.w3.org/Graphics/SVG/1.1/DTD/svg11.dtd">
<!-- Creator: CorelDRAW 2020 (64-Bit) -->
<svg xmlns="http://www.w3.org/2000/svg" xml:space="preserve" width="4.22172in" height="1.03408in" version="1.1" style="shape-rendering:geometricPrecision; text-rendering:geometricPrecision; image-rendering:optimizeQuality; fill-rule:evenodd; clip-rule:evenodd"
viewBox="0 0 4817.45 1180"
 xmlns:xlink="http://www.w3.org/1999/xlink"
 xmlns:xodm="http://www.corel.com/coreldraw/odm/2003">
 <defs>
  <style type="text/css">
   <![CDATA[
    .fil0 {fill:black}
   ]]>
  </style>
 </defs>
 <g id="Layer_x0020_1">
  <metadata id="CorelCorpID_0Corel-Layer"/>
  <path class="fil0" d="M54.13 54.13l4709.19 0 0 855.23 -4709.19 0 0 -855.23zm-54.13 1125.87l4817.45 0 0 -1180 -4817.45 0 0 1180zm1147.53 -519.63l108.26 0 0 -108.26 54.13 0 0 54.13 54.13 0 0 54.13 162.38 0 0 -54.13 -54.13 0 0 -54.13 -54.13 0 0 -54.13 -54.13 0 0 -54.13 54.13 0 0 -54.13 54.13 0 0 -54.13 54.13 0 0 -43.3 -108.26 0 0 43.3 -54.13 0 0 54.13 -54.13 0 0 54.13 -54.13 0 0 -151.56 -108.26 0 0 368.07zm584.59 -270.64l0 -54.13 64.95 0 0 54.13 54.13 0 0 119.08 -173.21 0 0 -119.08 54.13 0zm-97.43 -43.3l0 43.3 -54.13 0 0 270.64 108.26 0 0 -108.26 151.56 0 0 108.26 108.26 0 0 -270.64 -54.13 0 0 -43.3 -54.13 0 0 -54.13 -151.56 0 0 54.13 -54.13 0zm1710.47 -10.83l-54.13 0 0 108.26 54.13 0 0 54.13 216.51 0 0 108.26 -162.39 0 0 -54.13 -108.26 0 0 54.13 54.13 0 0 54.13 270.64 0 0 -54.13 54.13 0 0 -108.26 -54.13 0 0 -54.13 -216.51 0 0 -108.26 162.39 0 0 54.13 108.26 0 0 -54.13 -54.13 0 0 -43.3 -270.64 0 0 43.3zm-2998.73 10.83l0 43.3 -54.13 0 0 162.38 54.13 0 0 54.13 54.13 0 0 54.13 259.82 0 0 -216.51 -151.56 0 0 54.13 43.3 0 0 108.26 -97.43 0 0 -54.13 -54.13 0 0 -162.38 43.3 0 0 -54.13 216.51 0 0 -43.3 -259.82 0 0 54.13 -54.13 0zm4178.73 -10.83l0 -43.3 -313.94 0 0 43.3 108.26 0 0 270.64 -108.26 0 0 54.13 313.94 0 0 -54.13 -108.26 0 0 -270.64 108.26 0zm-1288.26 0l0 -43.3 -313.95 0 0 43.3 108.26 0 0 270.64 -108.26 0 0 54.13 313.95 0 0 -54.13 -108.26 0 0 -270.64 108.26 0zm-746.98 324.77l324.77 0 0 -54.13 -216.51 0 0 -313.95 -108.26 0 0 368.07zm-433.03 0l324.77 0 0 -54.13 -216.51 0 0 -313.95 -108.26 0 0 368.07zm1721.29 -368.07l0 43.3 108.26 0 0 324.77 108.26 0 0 -324.77 97.43 0 0 -43.3 -313.94 0zm-2955.42 368.07l108.26 0 0 -108.26 -108.26 0 0 108.26z"/>
 </g>
</svg>
