<?xml version="1.0" encoding="UTF-8"?>
<!DOCTYPE svg PUBLIC "-//W3C//DTD SVG 1.1//EN" "http://www.w3.org/Graphics/SVG/1.1/DTD/svg11.dtd">
<!-- Creator: CorelDRAW 2020 (64-Bit) -->
<svg xmlns="http://www.w3.org/2000/svg" xml:space="preserve" width="0.208331in" height="0.125in" version="1.1" style="shape-rendering:geometricPrecision; text-rendering:geometricPrecision; image-rendering:optimizeQuality; fill-rule:evenodd; clip-rule:evenodd"
viewBox="0 0 2.96 1.78"
 xmlns:xlink="http://www.w3.org/1999/xlink"
 xmlns:xodm="http://www.corel.com/coreldraw/odm/2003">
 <defs>
  <style type="text/css">
   <![CDATA[
    .fil0 {fill:#33CC66}
    .fil1 {fill:black;fill-rule:nonzero}
   ]]>
  </style>
 </defs>
 <rect class="fil0" x="-162.95" y="-92.18" width="117.48" height="166.15"/>
 <g id="Layer_x0020_1">
  <metadata id="CorelCorpID_0Corel-Layer"/>
  <path class="fil1" d="M1.33 0.3l1.48 0c0.04,0 0.08,-0.02 0.1,-0.04 0.03,-0.03 0.04,-0.07 0.04,-0.1 0,-0.04 -0.02,-0.08 -0.04,-0.1 -0.03,-0.03 -0.07,-0.04 -0.1,-0.04l-1.48 0c-0.04,0 -0.08,0.02 -0.1,0.04 -0.03,0.03 -0.04,0.07 -0.04,0.1 0,0.04 0.02,0.08 0.04,0.1 0.03,0.03 0.07,0.04 0.1,0.04zm1.48 1.18l-2.66 0c-0.04,0 -0.08,0.02 -0.1,0.04 -0.03,0.03 -0.04,0.07 -0.04,0.1 0,0.04 0.02,0.08 0.04,0.1 0.03,0.03 0.07,0.04 0.1,0.04l2.66 0c0.04,0 0.08,-0.02 0.1,-0.04 0.03,-0.03 0.04,-0.07 0.04,-0.1 0,-0.04 -0.02,-0.08 -0.04,-0.1 -0.03,-0.03 -0.07,-0.04 -0.1,-0.04l0 0zm-2.66 -0.44l2.66 0c0.04,0 0.08,-0.02 0.1,-0.04 0.03,-0.03 0.04,-0.07 0.04,-0.1 0,-0.04 -0.02,-0.08 -0.04,-0.1 -0.03,-0.03 -0.07,-0.04 -0.1,-0.04l-2.66 0c-0.04,0 -0.08,0.02 -0.1,0.04 -0.03,0.03 -0.04,0.07 -0.04,0.1 0,0.04 0.02,0.08 0.04,0.1 0.03,0.03 0.07,0.04 0.1,0.04z"/>
 </g>
</svg>
